<?xml version="1.0" standalone="no"?>
<!DOCTYPE svg PUBLIC "-//W3C//DTD SVG 20010904//EN"
 "http://www.w3.org/TR/2001/REC-SVG-20010904/DTD/svg10.dtd">
<svg version="1.0" xmlns="http://www.w3.org/2000/svg"
 width="250.000000pt" height="250.000000pt" viewBox="0 0 250.000000 250.000000"
 preserveAspectRatio="xMidYMid meet">
<metadata>
Created by potrace 1.14, written by Peter Selinger 2001-2017
</metadata>
<g transform="translate(0.000000,250.000000) scale(0.100000,-0.100000)"
fill="#000000" stroke="none">
<path d="M1265 2372 c-491 -32 -892 -352 -1011 -807 -22 -82 -27 -127 -30
-250 -5 -266 42 -443 171 -641 133 -205 341 -358 591 -437 240 -76 557 -73
809 5 84 27 239 104 298 149 59 46 187 171 187 184 0 7 -39 48 -87 92 -152
138 -280 253 -284 253 -3 0 -32 -27 -67 -59 -122 -117 -244 -171 -402 -178
-303 -15 -539 160 -599 446 -14 67 -15 219 -2 286 47 240 215 408 451 451 210
38 404 -23 554 -173 l62 -62 25 22 c13 12 94 85 179 162 160 144 170 154 170
169 0 18 -148 155 -220 202 -143 95 -336 164 -499 180 -77 7 -233 10 -296 6z"/>
</g>
</svg>
